<?xml version="1.0" encoding="UTF-8" standalone="no"?>
<!-- Uploaded to: SVG Repo, www.svgrepo.com, Generator: SVG Repo Mixer Tools -->

<svg
   width="16"
   height="16"
   viewBox="0 0 0.48 0.48"
   fill="none"
   version="1.1"
   id="svg1109"
   xmlns="http://www.w3.org/2000/svg"
   xmlns:svg="http://www.w3.org/2000/svg">
  <defs
     id="defs1113" />
  <path
     d="m 0.34210834,0.38620904 -0.0846335,-0.0846333 -0.0258457,0.0258458 c -0.0264583,0.0264583 -0.0396882,0.0396874 -0.0539075,0.0365649 -0.0142192,-0.003125 -0.020687,-0.0206797 -0.0336227,-0.0557919 l -0.043143,-0.11710016 c -0.025806,-0.0700448 -0.038708,-0.10506672 -0.020658,-0.12311709 0.01805,-0.0180504 0.053072,-0.005148 0.123117,0.0206582 l 0.1171002,0.0431427 c 0.035112,0.0129358 0.052667,0.0194036 0.055792,0.0336227 0.00312,0.0142192 -0.010107,0.0274492 -0.036565,0.0539074 l -0.025846,0.0258458 0.084633,0.0846333 c 0.00876,0.008761 0.013145,0.0131431 0.01517,0.0180321 0.0027,0.006518 0.0027,0.0138394 0,0.0203573 -0.00202,0.004887 -0.00641,0.009268 -0.01517,0.0180321 -0.00876,0.008763 -0.013145,0.0131453 -0.018032,0.0151696 -0.00652,0.002699 -0.013839,0.002699 -0.020357,0 -0.00489,-0.002024 -0.00927,-0.006406 -0.0180318,-0.0151695 z"
     stroke="#1c274c"
     stroke-width="0.0322347"
     stroke-linecap="round"
     stroke-linejoin="round"
     id="path1107" />
</svg>
