<?xml version="1.0" encoding="UTF-8" standalone="no"?>
<svg
   height="16.004"
   viewBox="0 0 16.004 16.004"
   width="16.004"
   version="1.1"
   id="svg208"
   xmlns="http://www.w3.org/2000/svg"
   xmlns:svg="http://www.w3.org/2000/svg">
  <defs
     id="defs184">
    <style
       id="style182">.a, .b {
			fill: none;
		}

		.a {
			stroke: #8095b3;
			stroke-miterlimit: 10;
		}

		.c {
			fill: #8095b3;
		}</style>
  </defs>
  <g
     transform="translate(0.004,0.004)"
     id="g206">
    <g
       transform="translate(-669.745 60.667)"
       id="g194">
      <g
         transform="translate(670.245 -60.167)"
         id="g192">
        <path
           class="a"
           d="M672.944-49.975c-.621.621-1.367.224-1.989-.4h0c-.621-.621-1.02-1.368-.4-1.989l1.989-1.989c.621-.621,1.367-.224,1.988.4h0c.622.621,1.02,1.367.4,1.989Z"
           transform="translate(-670.245 59.663)"
           id="path186"
           style="stroke:#ffffff;stroke-opacity:1" />
        <path
           class="a"
           d="M678.447-55.479c-.622.621-1.367.224-1.989-.4h0c-.622-.621-1.019-1.367-.4-1.988l1.988-1.989c.622-.621,1.368-.224,1.989.4h0c.622.621,1.019,1.367.4,1.989Z"
           transform="translate(-670.748 60.167)"
           id="path188"
           style="stroke:#ffffff;stroke-opacity:1" />
        <line
           class="a"
           transform="translate(3 3)"
           x2="4.233"
           y1="4.234"
           id="line190"
           style="fill:none;stroke:#ffffff;stroke-opacity:1" />
      </g>
    </g>
    <g
       transform="translate(-669.405 60.667)"
       id="g204">
      <path
         class="a"
         d="M681.5-56.167h3.745v11h-12V-47.5"
         transform="translate(-0.34)"
         id="path198"
         style="stroke:#ffffff;stroke-opacity:1" />
      <path
         class="c"
         d="m 673.905,-47.740211 3.83346,-3.885129 3.12844,4.995166 h 0.86169 l -1.2692,-2.92093 h 1.70755 l 1.74006,3.343444 h -10.00033 z"
         id="path200"
         style="fill:#ffffff;fill-opacity:1;stroke-width:0.833361" />
      <path
         class="c"
         d="M682.692-52.977a1.244,1.244,0,0,1-1.244,1.244,1.243,1.243,0,0,1-1.243-1.244,1.243,1.243,0,0,1,1.243-1.244A1.244,1.244,0,0,1,682.692-52.977Z"
         id="path202"
         style="fill:#ffffff;fill-opacity:1" />
    </g>
  </g>
</svg>
