<?xml version="1.0" encoding="UTF-8" standalone="no"?>
<!-- Created with Inkscape (http://www.inkscape.org/) -->

<svg
	height="1024"
	id="svg182"
	inkscape:export-filename="icon-mini.png"
	inkscape:export-xdpi="96"
	inkscape:export-ydpi="96"
	inkscape:version="1.2.2 (732a01da63, 2022-12-09)"
	sodipodi:docname="icon-mini.svg"
	version="1.1"
	viewBox="0 0 1024 1024"
	width="1024"
	xmlns="http://www.w3.org/2000/svg"
	xmlns:inkscape="http://www.inkscape.org/namespaces/inkscape"
	xmlns:sodipodi="http://sodipodi.sourceforge.net/DTD/sodipodi-0.dtd"
>
	<defs
		id="defs186"/>
	<sodipodi:namedview
		bordercolor="#000000"
		borderopacity="0.25"
		id="namedview184"
		inkscape:current-layer="g188"
		inkscape:cx="321.01362"
		inkscape:cy="464.75106"
		inkscape:deskcolor="#d1d1d1"
		inkscape:pagecheckerboard="0"
		inkscape:pageopacity="0.0"
		inkscape:showpageshadow="2"
		inkscape:window-height="1009"
		inkscape:window-maximized="1"
		inkscape:window-width="1920"
		inkscape:window-x="-8"
		inkscape:window-y="-8"
		inkscape:zoom="0.41742777"
		pagecolor="#ffffff"
		showgrid="false"/>
	<g
		id="g188"
		inkscape:groupmode="layer"
		inkscape:label="Image">
		<path
			d="m 571.06668,829.27668 v -31.9506 h 88.04571 88.04571 l -99.55766,-99.56597 -99.55763,-99.56596 22.65849,-22.65844 22.65844,-22.65844 99.56596,99.55764 99.56597,99.5576 V 663.9468 575.90109 h 31.95055 31.95061 v 127.1443 c 0,92.44312 -0.47626,129.03639 -1.7456,134.07696 -2.56004,10.1668 -13.02764,20.23033 -23.34389,22.44276 -5.36984,1.15165 -46.52588,1.6622 -133.99345,1.6622 H 571.06668 Z M 189.88028,828.52503 167.61775,806.22532 457.39068,516.44961 747.16361,226.67387 h -88.04849 -88.04844 v -31.9506 -31.95059 h 126.24316 c 87.46756,0 128.6236,0.51046 133.99344,1.66217 10.94999,2.34837 21.07905,12.47742 23.42743,23.42743 1.15147,5.36983 1.6622,46.52584 1.6622,133.99343 V 448.09885 H 824.44226 792.49172 V 360.05036 272.00192 L 503.07739,561.41332 C 343.89955,720.58956 213.32105,850.82476 212.90296,850.82476 c -0.41823,0 -10.7783,-10.03488 -23.02268,-22.29973 z m 104.0351,-484.44999 -126.30829,-126.3148 22.66045,-22.66042 22.66046,-22.66046 126.67539,126.67539 126.67545,126.67543 -22.26271,22.2999 c -12.24445,12.26492 -22.60689,22.29984 -23.02756,22.29984 -0.42055,0 -57.60364,-56.8417 -127.07319,-126.31488 z"
			id="path300"
			style="fill:#000000;stroke-width:1.48608"/>
	</g>
</svg>
